<svg width="27" height="28" viewBox="0 0 27 28" fill="none" xmlns="http://www.w3.org/2000/svg">
<circle cx="13.5" cy="14.0789" r="13.125" fill="#FFF5F8" stroke="#FD346E" stroke-width="0.75"/>
<g clip-path="url(#clip0_467_375)">
<path d="M13.3215 11.5538L9.00035 15.1127V18.9539C9.00035 19.0534 9.03986 19.1487 9.11019 19.2191C9.18051 19.2894 9.2759 19.3289 9.37535 19.3289L12.0018 19.3221C12.1009 19.3216 12.1958 19.2819 12.2657 19.2116C12.3356 19.1413 12.3749 19.0462 12.3749 18.9471V16.7039C12.3749 16.6045 12.4144 16.5091 12.4847 16.4387C12.555 16.3684 12.6504 16.3289 12.7499 16.3289H14.2499C14.3493 16.3289 14.4447 16.3684 14.515 16.4387C14.5854 16.5091 14.6249 16.6045 14.6249 16.7039V18.9455C14.6247 18.9948 14.6343 19.0437 14.6531 19.0893C14.6719 19.135 14.6995 19.1764 14.7343 19.2114C14.7691 19.2463 14.8105 19.2741 14.8561 19.293C14.9017 19.3119 14.9505 19.3216 14.9999 19.3216L17.6254 19.3289C17.7248 19.3289 17.8202 19.2894 17.8905 19.2191C17.9608 19.1487 18.0004 19.0534 18.0004 18.9539V15.1102L13.6801 11.5538C13.6293 11.5128 13.5661 11.4905 13.5008 11.4905C13.4356 11.4905 13.3723 11.5128 13.3215 11.5538ZM20.1472 13.9727L18.1879 12.3577V9.11133C18.1879 9.03674 18.1582 8.9652 18.1055 8.91245C18.0527 8.85971 17.9812 8.83008 17.9066 8.83008H16.5941C16.5195 8.83008 16.448 8.85971 16.3952 8.91245C16.3425 8.9652 16.3129 9.03674 16.3129 9.11133V10.8131L14.2145 9.08672C14.0131 8.92101 13.7604 8.83041 13.4996 8.83041C13.2389 8.83041 12.9862 8.92101 12.7848 9.08672L6.85207 13.9727C6.82359 13.9963 6.80003 14.0252 6.78273 14.0578C6.76543 14.0905 6.75473 14.1262 6.75125 14.163C6.74777 14.1998 6.75157 14.2369 6.76243 14.2722C6.7733 14.3075 6.79101 14.3404 6.81457 14.3688L7.41223 15.0954C7.43572 15.124 7.46461 15.1476 7.49726 15.165C7.5299 15.1824 7.56565 15.1931 7.60247 15.1967C7.63928 15.2002 7.67643 15.1965 7.71179 15.1857C7.74716 15.1748 7.78004 15.1571 7.80855 15.1336L13.3215 10.5928C13.3723 10.5519 13.4356 10.5295 13.5008 10.5295C13.5661 10.5295 13.6293 10.5519 13.6801 10.5928L19.1933 15.1336C19.2218 15.1572 19.2546 15.1749 19.2899 15.1857C19.3252 15.1966 19.3624 15.2004 19.3991 15.1969C19.4359 15.1934 19.4717 15.1827 19.5043 15.1654C19.537 15.1481 19.5659 15.1246 19.5894 15.0961L20.1871 14.3695C20.2106 14.3409 20.2282 14.3079 20.239 14.2724C20.2497 14.237 20.2533 14.1997 20.2496 14.1629C20.2459 14.126 20.235 14.0902 20.2174 14.0576C20.1998 14.0249 20.176 13.9961 20.1472 13.9727Z" fill="#FD346E"/>
</g>
<defs>
<clipPath id="clip0_467_375">
<rect width="13.5" height="12" fill="white" transform="translate(6.75 8.07886)"/>
</clipPath>
</defs>
</svg> 
