<svg width="28" height="28" viewBox="0 0 28 28" fill="none" xmlns="http://www.w3.org/2000/svg">
<circle cx="14" cy="13.8289" r="13.125" fill="#FFF5F8" stroke="#FD346E" stroke-width="0.75"/>
<g clip-path="url(#clip0_467_367)">
<path d="M10.7241 19.2993V11.5602H8.15177V19.2993H10.7241ZM9.43825 10.5029C10.3353 10.5029 10.8936 9.90866 10.8936 9.16602C10.8769 8.40663 10.3353 7.82886 9.45527 7.82886C8.57539 7.82886 8 8.40664 8 9.16602C8 9.90869 8.55821 10.5029 9.42146 10.5029H9.43817H9.43825ZM12.1478 19.2993H14.7201V14.9774C14.7201 14.7461 14.7369 14.515 14.8048 14.3497C14.9907 13.8876 15.414 13.4089 16.1246 13.4089C17.0554 13.4089 17.4278 14.1186 17.4278 15.159V19.2992H19.9999V14.8617C19.9999 12.4846 18.7309 11.3785 17.0384 11.3785C15.6508 11.3785 15.0415 12.1542 14.703 12.6825H14.7202V11.56H12.1479C12.1817 12.2862 12.1479 19.2991 12.1479 19.2991L12.1478 19.2993Z" fill="#FD346E"/>
</g>
<defs>
<clipPath id="clip0_467_367">
<rect width="12" height="11.4704" fill="white" transform="translate(8 7.82886)"/>
</clipPath>
</defs>
</svg>
