<svg width="27" height="28" viewBox="0 0 27 28" fill="none" xmlns="http://www.w3.org/2000/svg">
<circle cx="13.5" cy="14.0789" r="13.125" fill="#FFF5F8" stroke="#FD346E" stroke-width="0.75"/>
<g clip-path="url(#clip0_467_381)">
<path d="M13.3241 14.9589C14.0199 15.6648 14.8618 16.2098 15.7907 16.5556L17.0474 15.5556C17.0847 15.5299 17.1288 15.5162 17.1741 15.5162C17.2193 15.5162 17.2635 15.5299 17.3007 15.5556L19.6341 17.0589C19.7226 17.1122 19.7976 17.1853 19.8531 17.2725C19.9086 17.3597 19.943 17.4586 19.9537 17.5614C19.9643 17.6642 19.9509 17.7681 19.9146 17.8649C19.8782 17.9616 19.8198 18.0486 19.7441 18.1189L18.6507 19.1989C18.4942 19.3536 18.3017 19.4671 18.0906 19.5294C17.8794 19.5916 17.6562 19.6006 17.4407 19.5556C15.2915 19.1117 13.3104 18.0721 11.7241 16.5556C10.1729 15.024 9.09949 13.0752 8.63406 10.9456C8.58809 10.7334 8.59768 10.513 8.66192 10.3057C8.72616 10.0984 8.84287 9.91118 9.00073 9.76223L10.1341 8.66889C10.2042 8.59682 10.2897 8.54155 10.3842 8.50722C10.4788 8.47289 10.5798 8.46038 10.6799 8.47064C10.7799 8.4809 10.8763 8.51366 10.9619 8.56647C11.0475 8.61927 11.12 8.69075 11.1741 8.77556L12.7274 11.0789C12.7542 11.1151 12.7687 11.1589 12.7687 11.2039C12.7687 11.2489 12.7542 11.2927 12.7274 11.3289L11.7041 12.5589C12.0593 13.4692 12.6126 14.289 13.3241 14.9589Z" fill="#FD346E"/>
</g>
<defs>
<clipPath id="clip0_467_381">
<rect width="12" height="12" fill="white" transform="translate(8.25 8.07886)"/>
</clipPath>
</defs>
</svg>
