<svg width="28" height="28" viewBox="0 0 28 28" fill="none" xmlns="http://www.w3.org/2000/svg">
<circle cx="14" cy="13.8289" r="13.5" fill="#FD346E"/>
<path d="M18.8752 10.0589C18.5166 10.2136 18.1264 10.325 17.7244 10.3683C18.1417 10.1204 18.4542 9.72871 18.6033 9.26675C18.2117 9.49971 17.7827 9.66306 17.3354 9.74957C17.1484 9.54967 16.9222 9.39043 16.671 9.28176C16.4198 9.17309 16.1489 9.11732 15.8752 9.11792C14.7678 9.11792 13.8771 10.0156 13.8771 11.1171C13.8771 11.2718 13.8959 11.4265 13.9264 11.5753C12.2682 11.4886 10.7893 10.6964 9.80605 9.48355C9.6269 9.78954 9.53302 10.138 9.53418 10.4925C9.53418 11.1863 9.88691 11.798 10.4248 12.1578C10.1078 12.1453 9.79825 12.0582 9.52129 11.9035V11.9281C9.52129 12.8996 10.208 13.7046 11.1232 13.8898C10.9514 13.9344 10.7746 13.9573 10.5971 13.9578C10.467 13.9578 10.3439 13.9449 10.2197 13.9273C10.4729 14.7195 11.21 15.2949 12.0877 15.3136C11.401 15.8515 10.5408 16.1679 9.60684 16.1679C9.43926 16.1679 9.28457 16.1621 9.12402 16.1433C10.01 16.7117 11.0611 17.0398 12.1932 17.0398C15.8682 17.0398 17.8791 13.9953 17.8791 11.3527C17.8791 11.266 17.8791 11.1793 17.8732 11.0925C18.2623 10.8078 18.6033 10.455 18.8752 10.0589Z" fill="white"/>
</svg>
