<svg width="27" height="28" viewBox="0 0 27 28" fill="none" xmlns="http://www.w3.org/2000/svg">
<circle cx="13.5" cy="13.8289" r="13.125" fill="#FFF5F8" stroke="#FD346E" stroke-width="0.75"/>
<path fill-rule="evenodd" clip-rule="evenodd" d="M12.4675 15.1429V12.3329L15.169 13.7429L12.4675 15.1429ZM18.4 11.8464C18.4 11.8464 18.3025 11.1569 18.0025 10.8534C17.6225 10.4554 17.196 10.4534 17.0005 10.4299C15.6015 10.3289 13.502 10.3289 13.502 10.3289H13.498C13.498 10.3289 11.399 10.3289 9.9995 10.4299C9.804 10.4534 9.378 10.4549 8.9975 10.8534C8.6975 11.1569 8.6 11.8464 8.6 11.8464C8.6 11.8464 8.5 12.6554 8.5 13.4649V14.2234C8.5 15.0324 8.6 15.8419 8.6 15.8419C8.6 15.8419 8.6975 16.5309 8.9975 16.8344C9.3775 17.2329 9.8775 17.2199 10.1 17.2619C10.9 17.3384 13.5 17.3619 13.5 17.3619C13.5 17.3619 15.6015 17.3589 17.0005 17.2579C17.196 17.2344 17.6225 17.2329 18.0025 16.8344C18.3025 16.5309 18.4 15.8419 18.4 15.8419C18.4 15.8419 18.5 15.0324 18.5 14.2234V13.4649C18.5 12.6554 18.4 11.8464 18.4 11.8464Z" fill="#FD346E"/>
</svg>
