<svg width="276" height="50" viewBox="0 0 138 25" fill="none" xmlns="http://www.w3.org/2000/svg">
<path d="M4.66231 1.402V18.25H0.558313V1.402H4.66231ZM24.7244 4.714C26.3884 4.714 27.7084 5.218 28.6844 6.226C29.6764 7.234 30.1724 8.634 30.1724 10.426V18.25H26.0924V10.978C26.0924 10.114 25.8604 9.45 25.3964 8.986C24.9484 8.506 24.3244 8.266 23.5244 8.266C22.7244 8.266 22.0924 8.506 21.6284 8.986C21.1804 9.45 20.9564 10.114 20.9564 10.978V18.25H16.8764V10.978C16.8764 10.114 16.6444 9.45 16.1804 8.986C15.7324 8.506 15.1084 8.266 14.3084 8.266C13.5084 8.266 12.8764 8.506 12.4124 8.986C11.9644 9.45 11.7404 10.114 11.7404 10.978V18.25H7.63644V4.858H11.7404V6.538C12.1564 5.978 12.7004 5.538 13.3724 5.218C14.0444 4.882 14.8044 4.714 15.6524 4.714C16.6604 4.714 17.5564 4.93 18.3404 5.362C19.1404 5.794 19.7644 6.41 20.2124 7.21C20.6764 6.474 21.3084 5.874 22.1084 5.41C22.9084 4.946 23.7804 4.714 24.7244 4.714ZM37.1467 6.754C37.5467 6.13 38.0987 5.626 38.8027 5.242C39.5067 4.858 40.3307 4.666 41.2747 4.666C42.3787 4.666 43.3787 4.946 44.2747 5.506C45.1707 6.066 45.8747 6.866 46.3867 7.906C46.9147 8.946 47.1787 10.154 47.1787 11.53C47.1787 12.906 46.9147 14.122 46.3867 15.178C45.8747 16.218 45.1707 17.026 44.2747 17.602C43.3787 18.162 42.3787 18.442 41.2747 18.442C40.3467 18.442 39.5227 18.25 38.8027 17.866C38.0987 17.482 37.5467 16.986 37.1467 16.378V24.634H33.0427V4.858H37.1467V6.754ZM43.0027 11.53C43.0027 10.506 42.7147 9.706 42.1387 9.13C41.5787 8.538 40.8827 8.242 40.0507 8.242C39.2347 8.242 38.5387 8.538 37.9627 9.13C37.4027 9.722 37.1227 10.53 37.1227 11.554C37.1227 12.578 37.4027 13.386 37.9627 13.978C38.5387 14.57 39.2347 14.866 40.0507 14.866C40.8667 14.866 41.5627 14.57 42.1387 13.978C42.7147 13.37 43.0027 12.554 43.0027 11.53ZM48.5158 11.53C48.5158 10.154 48.7718 8.946 49.2838 7.906C49.8118 6.866 50.5238 6.066 51.4198 5.506C52.3158 4.946 53.3158 4.666 54.4198 4.666C55.3638 4.666 56.1878 4.858 56.8918 5.242C57.6118 5.626 58.1638 6.13 58.5478 6.754V4.858H62.6518V18.25H58.5478V16.354C58.1478 16.978 57.5878 17.482 56.8678 17.866C56.1638 18.25 55.3398 18.442 54.3958 18.442C53.3078 18.442 52.3158 18.162 51.4198 17.602C50.5238 17.026 49.8118 16.218 49.2838 15.178C48.7718 14.122 48.5158 12.906 48.5158 11.53ZM58.5478 11.554C58.5478 10.53 58.2598 9.722 57.6838 9.13C57.1238 8.538 56.4358 8.242 55.6198 8.242C54.8038 8.242 54.1078 8.538 53.5318 9.13C52.9718 9.706 52.6918 10.506 52.6918 11.53C52.6918 12.554 52.9718 13.37 53.5318 13.978C54.1078 14.57 54.8038 14.866 55.6198 14.866C56.4358 14.866 57.1238 14.57 57.6838 13.978C58.2598 13.386 58.5478 12.578 58.5478 11.554ZM64.8048 11.554C64.8048 10.162 65.0848 8.946 65.6448 7.906C66.2208 6.866 67.0128 6.066 68.0208 5.506C69.0448 4.946 70.2128 4.666 71.5248 4.666C73.2048 4.666 74.6048 5.106 75.7248 5.986C76.8608 6.866 77.6048 8.106 77.9568 9.706H73.5888C73.2208 8.682 72.5088 8.17 71.4528 8.17C70.7008 8.17 70.1008 8.466 69.6528 9.058C69.2048 9.634 68.9808 10.466 68.9808 11.554C68.9808 12.642 69.2048 13.482 69.6528 14.074C70.1008 14.65 70.7008 14.938 71.4528 14.938C72.5088 14.938 73.2208 14.426 73.5888 13.402H77.9568C77.6048 14.97 76.8608 16.202 75.7248 17.098C74.5888 17.994 73.1888 18.442 71.5248 18.442C70.2128 18.442 69.0448 18.162 68.0208 17.602C67.0128 17.042 66.2208 16.242 65.6448 15.202C65.0848 14.162 64.8048 12.946 64.8048 11.554ZM87.6161 14.77V18.25H85.5281C84.0401 18.25 82.8801 17.89 82.0481 17.17C81.2161 16.434 80.8001 15.242 80.8001 13.594V8.266H79.1681V4.858H80.8001V1.594H84.9041V4.858H87.5921V8.266H84.9041V13.642C84.9041 14.042 85.0001 14.33 85.1921 14.506C85.3841 14.682 85.7041 14.77 86.1521 14.77H87.6161ZM104.494 1.402V18.25H100.39V11.314H94.0061V18.25H89.9021V1.402H94.0061V8.002H100.39V1.402H104.494ZM120.681 4.858V18.25H116.577V16.426C116.161 17.018 115.593 17.498 114.873 17.866C114.169 18.218 113.385 18.394 112.521 18.394C111.497 18.394 110.593 18.17 109.809 17.722C109.025 17.258 108.417 16.594 107.985 15.73C107.553 14.866 107.337 13.85 107.337 12.682V4.858H111.417V12.13C111.417 13.026 111.649 13.722 112.113 14.218C112.577 14.714 113.201 14.962 113.985 14.962C114.785 14.962 115.417 14.714 115.881 14.218C116.345 13.722 116.577 13.026 116.577 12.13V4.858H120.681ZM127.733 6.754C128.117 6.13 128.669 5.626 129.389 5.242C130.109 4.858 130.933 4.666 131.861 4.666C132.965 4.666 133.965 4.946 134.861 5.506C135.757 6.066 136.461 6.866 136.973 7.906C137.501 8.946 137.765 10.154 137.765 11.53C137.765 12.906 137.501 14.122 136.973 15.178C136.461 16.218 135.757 17.026 134.861 17.602C133.965 18.162 132.965 18.442 131.861 18.442C130.917 18.442 130.093 18.258 129.389 17.89C128.685 17.506 128.133 17.002 127.733 16.378V18.25H123.629V0.49H127.733V6.754ZM133.589 11.53C133.589 10.506 133.301 9.706 132.725 9.13C132.165 8.538 131.469 8.242 130.637 8.242C129.821 8.242 129.125 8.538 128.549 9.13C127.989 9.722 127.709 10.53 127.709 11.554C127.709 12.578 127.989 13.386 128.549 13.978C129.125 14.57 129.821 14.866 130.637 14.866C131.453 14.866 132.149 14.57 132.725 13.978C133.301 13.37 133.589 12.554 133.589 11.53Z" fill="#FD346E"/>
</svg>
