<svg width="254" height="80" viewBox="0 0 254 80" fill="none" xmlns="http://www.w3.org/2000/svg">
<rect width="254" height="80" fill="#FD346E"/>
<path d="M41.5498 28.536V51H36.0778V28.536H41.5498ZM68.2993 32.952C70.5179 32.952 72.2779 33.624 73.5793 34.968C74.9019 36.312 75.5633 38.1787 75.5633 40.568V51H70.1233V41.304C70.1233 40.152 69.8139 39.2667 69.1953 38.648C68.5979 38.008 67.7659 37.688 66.6993 37.688C65.6326 37.688 64.7899 38.008 64.1713 38.648C63.5739 39.2667 63.2753 40.152 63.2753 41.304V51H57.8353V41.304C57.8353 40.152 57.5259 39.2667 56.9073 38.648C56.3099 38.008 55.4779 37.688 54.4113 37.688C53.3446 37.688 52.5019 38.008 51.8833 38.648C51.2859 39.2667 50.9873 40.152 50.9873 41.304V51H45.5153V33.144H50.9873V35.384C51.5419 34.6373 52.2673 34.0507 53.1633 33.624C54.0593 33.176 55.0726 32.952 56.2033 32.952C57.5473 32.952 58.7419 33.24 59.7873 33.816C60.8539 34.392 61.6859 35.2133 62.2833 36.28C62.9019 35.2987 63.7446 34.4987 64.8113 33.88C65.8779 33.2613 67.0406 32.952 68.2993 32.952ZM84.8623 35.672C85.3956 34.84 86.1316 34.168 87.0703 33.656C88.0089 33.144 89.1076 32.888 90.3663 32.888C91.8383 32.888 93.1716 33.2613 94.3663 34.008C95.5609 34.7547 96.4996 35.8213 97.1823 37.208C97.8863 38.5947 98.2383 40.2053 98.2383 42.04C98.2383 43.8747 97.8863 45.496 97.1823 46.904C96.4996 48.2907 95.5609 49.368 94.3663 50.136C93.1716 50.8827 91.8383 51.256 90.3663 51.256C89.1289 51.256 88.0303 51 87.0703 50.488C86.1316 49.976 85.3956 49.3147 84.8623 48.504V59.512H79.3903V33.144H84.8623V35.672ZM92.6703 42.04C92.6703 40.6747 92.2863 39.608 91.5183 38.84C90.7716 38.0507 89.8436 37.656 88.7343 37.656C87.6463 37.656 86.7183 38.0507 85.9503 38.84C85.2036 39.6293 84.8303 40.7067 84.8303 42.072C84.8303 43.4373 85.2036 44.5147 85.9503 45.304C86.7183 46.0933 87.6463 46.488 88.7343 46.488C89.8223 46.488 90.7503 46.0933 91.5183 45.304C92.2863 44.4933 92.6703 43.4053 92.6703 42.04ZM100.021 42.04C100.021 40.2053 100.362 38.5947 101.045 37.208C101.749 35.8213 102.698 34.7547 103.893 34.008C105.088 33.2613 106.421 32.888 107.893 32.888C109.152 32.888 110.25 33.144 111.189 33.656C112.149 34.168 112.885 34.84 113.397 35.672V33.144H118.869V51H113.397V48.472C112.864 49.304 112.117 49.976 111.157 50.488C110.218 51 109.12 51.256 107.861 51.256C106.41 51.256 105.088 50.8827 103.893 50.136C102.698 49.368 101.749 48.2907 101.045 46.904C100.362 45.496 100.021 43.8747 100.021 42.04ZM113.397 42.072C113.397 40.7067 113.013 39.6293 112.245 38.84C111.498 38.0507 110.581 37.656 109.493 37.656C108.405 37.656 107.477 38.0507 106.709 38.84C105.962 39.608 105.589 40.6747 105.589 42.04C105.589 43.4053 105.962 44.4933 106.709 45.304C107.477 46.0933 108.405 46.488 109.493 46.488C110.581 46.488 111.498 46.0933 112.245 45.304C113.013 44.5147 113.397 43.4373 113.397 42.072ZM121.74 42.072C121.74 40.216 122.113 38.5947 122.86 37.208C123.628 35.8213 124.684 34.7547 126.028 34.008C127.393 33.2613 128.95 32.888 130.7 32.888C132.94 32.888 134.806 33.4747 136.3 34.648C137.814 35.8213 138.806 37.4747 139.276 39.608H133.452C132.961 38.2427 132.012 37.56 130.604 37.56C129.601 37.56 128.801 37.9547 128.204 38.744C127.606 39.512 127.308 40.6213 127.308 42.072C127.308 43.5227 127.606 44.6427 128.204 45.432C128.801 46.2 129.601 46.584 130.604 46.584C132.012 46.584 132.961 45.9013 133.452 44.536H139.276C138.806 46.6267 137.814 48.2693 136.3 49.464C134.785 50.6587 132.918 51.256 130.7 51.256C128.95 51.256 127.393 50.8827 126.028 50.136C124.684 49.3893 123.628 48.3227 122.86 46.936C122.113 45.5493 121.74 43.928 121.74 42.072ZM152.155 46.36V51H149.371C147.387 51 145.84 50.52 144.731 49.56C143.621 48.5787 143.067 46.9893 143.067 44.792V37.688H140.891V33.144H143.067V28.792H148.539V33.144H152.123V37.688H148.539V44.856C148.539 45.3893 148.667 45.7733 148.923 46.008C149.179 46.2427 149.605 46.36 150.203 46.36H152.155ZM174.659 28.536V51H169.187V41.752H160.675V51H155.203V28.536H160.675V37.336H169.187V28.536H174.659ZM196.241 33.144V51H190.769V48.568C190.214 49.3573 189.457 49.9973 188.497 50.488C187.558 50.9573 186.513 51.192 185.361 51.192C183.996 51.192 182.79 50.8933 181.745 50.296C180.7 49.6773 179.889 48.792 179.313 47.64C178.737 46.488 178.449 45.1333 178.449 43.576V33.144H183.889V42.84C183.889 44.0347 184.198 44.9627 184.817 45.624C185.436 46.2853 186.268 46.616 187.313 46.616C188.38 46.616 189.222 46.2853 189.841 45.624C190.46 44.9627 190.769 44.0347 190.769 42.84V33.144H196.241ZM205.644 35.672C206.156 34.84 206.892 34.168 207.852 33.656C208.812 33.144 209.91 32.888 211.148 32.888C212.62 32.888 213.953 33.2613 215.148 34.008C216.342 34.7547 217.281 35.8213 217.964 37.208C218.668 38.5947 219.02 40.2053 219.02 42.04C219.02 43.8747 218.668 45.496 217.964 46.904C217.281 48.2907 216.342 49.368 215.148 50.136C213.953 50.8827 212.62 51.256 211.148 51.256C209.889 51.256 208.79 51.0107 207.852 50.52C206.913 50.008 206.177 49.336 205.644 48.504V51H200.172V27.32H205.644V35.672ZM213.452 42.04C213.452 40.6747 213.068 39.608 212.3 38.84C211.553 38.0507 210.625 37.656 209.516 37.656C208.428 37.656 207.5 38.0507 206.732 38.84C205.985 39.6293 205.612 40.7067 205.612 42.072C205.612 43.4373 205.985 44.5147 206.732 45.304C207.5 46.0933 208.428 46.488 209.516 46.488C210.604 46.488 211.532 46.0933 212.3 45.304C213.068 44.4933 213.452 43.4053 213.452 42.04Z" fill="white"/>
</svg>
